# xmcd
#
# Track frame offsets:
#	150
#	12724
#	25936
#	46129
#	57988
#	81164
#	94967
#	109067
#	125426
#	136030
#	149689
#	162620
#	176969
#	197172
#	210382
#	223968
#	239675
#	251988
#	269012
#	280206
#	290053
#	300399
#	315049
#
# Disc length: 4370 seconds
#
# Revision: 1
# Processed by: cddbd v1.5.2PL0 Copyright (c) Steve Scherf et al.
# Submitted via: audiograbber 1.83.01
#
DISCID=6d111017
DTITLE=Western Heart - Western Heart 007
DYEAR=2000
DGENRE=Country
TTITLE0=Gotta Travel On  - Ernie Ashworth and Erin Hay
TTITLE1=Whisper Of Tomorrow´s Love  - Paul Mateki
TTITLE2=Sweet Dreams  - Joan Myrol
TTITLE3=The Mansion You Stole  - W B Stokely
TTITLE4=Outlaws Prayer  - Johnny Paycheck
TTITLE5=Useless  - Kira Talesev
TTITLE6=Mend It Or End It  - Sean O´brien
TTITLE7=Country Roads  - Erin Hay
TTITLE8=Time Train - Ernie Ashworth
TTITLE9=Weary Blue From Waitin  - Megan Sheehan
TTITLE10=Harold´s Super Service  - Ron Wayne Atwood
TTITLE11=If You Ain´t Shooting From The Heart - Cheryl K Warner
TTITLE12=Thank God I´m An American  - Tony Glenn Rast
TTITLE13=New Love Fever  - Jamie Beaver
TTITLE14=I´d Be Lying If I Told You  - Joy Adams
TTITLE15=Non Stop Flight  - Randall Rutledge
TTITLE16=You´re The Rock I´m Leaning On - Sylvia Winters
TTITLE17=The Cowboy Cathering  - Martin Moss and Chrissie Hammonds
TTITLE18=I´ve Got A Secret  - John Welch
TTITLE19=Pinned Down By Your Hog  - Jack Roux
TTITLE20=Fools Heart  - Janet Ball
TTITLE21=Cactus On Yuor Shirt  - Michael Martin
TTITLE22=Traveling Jone - Shelly Anglin 
EXTD=
EXTT0=
EXTT1=
EXTT2=
EXTT3=
EXTT4=
EXTT5=
EXTT6=
EXTT7=
EXTT8=
EXTT9=
EXTT10=
EXTT11=
EXTT12=
EXTT13=
EXTT14=
EXTT15=
EXTT16=
EXTT17=
EXTT18=
EXTT19=
EXTT20=
EXTT21=
EXTT22=
PLAYORDER=
